<svg width="158" height="32" viewBox="0 0 158 32" fill="none" xmlns="http://www.w3.org/2000/svg">
<path d="M17.3883 18.5611L14.4876 15.4786L17.3883 12.3876V6.22266L8.70215 15.4786L17.3883 24.7345V18.5611Z" fill="#FF0044"/>
<path d="M0 0.0334473V30.9175H28.9831V0.0334473H0ZM24.8347 26.5055H4.14044V4.44546H24.8426V26.5055H24.8347Z" fill="#FF0044"/>
<path d="M36.1754 10.9978V8.38959C36.2708 8.43193 36.3502 8.45734 36.4217 8.4658C36.6125 8.51661 36.8191 8.54202 37.0416 8.54202C37.7728 8.54202 38.2734 8.23716 38.5516 7.61897L38.6231 7.46654L35.1661 0.336182H38.186L40.0297 4.78207H40.0854L41.643 0.336182H44.6629L41.1344 8.31337C40.7052 9.26183 40.1966 9.99011 39.6244 10.4813C39.0522 10.9809 38.329 11.2265 37.4628 11.2265C37.0973 11.2265 36.7794 11.1926 36.5092 11.1164L36.1754 10.9978Z" fill="white"/>
<path d="M46.7537 11.0745V0.33667H49.4875V4.24905H53.1591V0.33667H55.8929V11.0745H53.1591V7.00973H49.4875V11.0745H46.7537Z" fill="white"/>
<path d="M59.2704 11.0745V0.33667H62.0042V6.23911L66.3195 0.33667H68.6956V11.0745H65.9618V5.1721L61.6466 11.0745H59.2704Z" fill="white"/>
<path d="M72.0813 11.0745V0.33667H76.5396C77.6443 0.33667 78.5026 0.607657 79.1304 1.14963C79.7502 1.69161 80.0681 2.36907 80.0681 3.17357C80.0681 3.90185 79.8138 4.49463 79.3052 4.95192C79.1145 5.12976 78.8602 5.27372 78.5582 5.40075C78.9317 5.54471 79.2655 5.73101 79.5675 5.96813C80.243 6.51857 80.5768 7.22144 80.5768 8.08522C80.5768 8.93205 80.2509 9.64339 79.5992 10.2192C78.9476 10.7951 78.0496 11.0745 76.9052 11.0745H72.0813ZM74.8151 4.47769H76.325C76.6111 4.47769 76.8416 4.39302 77.0085 4.22365C77.1754 4.05428 77.2628 3.8341 77.2628 3.55465C77.2628 3.27519 77.1754 3.05501 77.0085 2.88565C76.8416 2.71628 76.6111 2.63159 76.325 2.63159H74.8151V4.47769ZM74.8151 8.77115H76.6827C77.0005 8.77115 77.2549 8.66953 77.4615 8.46629C77.6602 8.26305 77.7635 8.009 77.7635 7.69567C77.7635 7.39081 77.6602 7.13676 77.4615 6.92505C77.2628 6.72181 77.0005 6.62019 76.6827 6.62019H74.8151V8.77115Z" fill="white"/>
<path d="M83.3101 11.0745V0.33667H91.0108V2.94492H86.0439V4.47769H89.8585V6.93352H86.0439V8.46629H91.1538V11.0745H83.3101Z" fill="white"/>
<path d="M93.9592 11.0745V0.33667H98.489C99.5937 0.33667 100.492 0.692343 101.191 1.40368C101.89 2.11503 102.232 3.01267 102.232 4.09662C102.232 5.18057 101.882 6.07822 101.191 6.78956C100.492 7.5009 99.5937 7.85657 98.489 7.85657H96.693V11.0745H93.9592ZM96.693 5.24832H98.346C98.6639 5.24832 98.9341 5.12976 99.1566 4.90111C99.3791 4.67247 99.4983 4.40148 99.4983 4.09662C99.4983 3.79176 99.387 3.52077 99.1566 3.29212C98.9261 3.06348 98.6639 2.94492 98.346 2.94492H96.693V5.24832Z" fill="white"/>
<path d="M112.81 7.31518L114.463 9.30524C114.137 9.70325 113.764 10.0505 113.342 10.3468C112.405 11.0328 111.316 11.3715 110.076 11.3715C108.471 11.3715 107.136 10.8211 106.071 9.72019C104.998 8.6193 104.465 7.28131 104.465 5.69772C104.465 4.11414 104.998 2.76767 106.071 1.67526C107.144 0.574372 108.479 0.0239258 110.076 0.0239258C111.284 0.0239258 112.365 0.371131 113.311 1.06554C113.732 1.37886 114.089 1.72607 114.391 2.09021L112.738 4.08027C112.516 3.82622 112.269 3.59757 112.007 3.39433C111.387 2.93704 110.744 2.7084 110.076 2.7084C109.289 2.7084 108.622 2.99632 108.081 3.57217C107.541 4.14801 107.271 4.85936 107.271 5.69772C107.271 6.53609 107.541 7.24743 108.081 7.82328C108.622 8.39913 109.289 8.68705 110.076 8.68705C110.728 8.68705 111.379 8.45841 112.031 8.00112C112.317 7.80634 112.579 7.57769 112.81 7.31518Z" fill="white"/>
<path d="M116.982 11.0745V0.33667H119.716V6.23911L124.031 0.33667H126.407V11.0745H123.674V5.1721L119.358 11.0745H116.982Z" fill="white"/>
<path d="M131.732 11.0745V2.94492H128.927V0.33667H137.271V2.94492H134.466V11.0745H131.732Z" fill="white"/>
<path d="M139.79 11.0745V0.33667H147.491V2.94492H142.524V4.47769H146.339V6.93352H142.524V8.46629H147.634V11.0745H139.79Z" fill="white"/>
<path d="M152.386 11.0745V2.94492H149.581V0.33667H157.925V2.94492H155.12V11.0745H152.386Z" fill="white"/>
<path d="M47.4608 24.879L49.988 27.9276C49.4873 28.5373 48.9151 29.0708 48.2714 29.5196C46.833 30.5697 45.172 31.0863 43.2806 31.0863C40.8329 31.0863 38.7905 30.2479 37.1534 28.5712C35.5163 26.8944 34.7057 24.8451 34.7057 22.4231C34.7057 20.0012 35.5242 17.9518 37.1534 16.2751C38.7905 14.5984 40.8329 13.76 43.2806 13.76C45.1243 13.76 46.7773 14.2935 48.2317 15.3521C48.8754 15.8348 49.4237 16.3598 49.8847 16.9187L47.3575 19.9673C47.0237 19.5778 46.6422 19.2221 46.2369 18.9088C45.2833 18.2059 44.3058 17.8587 43.2886 17.8587C42.0885 17.8587 41.0713 18.2991 40.2448 19.1798C39.4183 20.0605 39.0051 21.1444 39.0051 22.4231C39.0051 23.7019 39.4183 24.7858 40.2448 25.6665C41.0713 26.5472 42.0885 26.9876 43.2886 26.9876C44.2819 26.9876 45.2833 26.6404 46.2767 25.9375C46.7138 25.6157 47.1111 25.2685 47.4608 24.879Z" fill="white"/>
<path d="M51.8158 30.6205V14.2173H55.996V23.2361L62.5921 14.2173H66.2159V30.6205H62.0358V21.6017L55.4397 30.6205H51.8158Z" fill="white"/>
<path d="M69.355 30.6205V14.2173H73.5352V20.196H79.1379V14.2173H83.3181V30.6205H79.1379V24.4132H73.5352V30.6205H69.355Z" fill="white"/>
<path d="M86.4651 30.6205V14.2173H98.2268V18.1974H90.6453V20.5431H96.4705V24.2946H90.6453V26.6404H98.4493V30.6205H86.4651Z" fill="white"/>
<path d="M100.714 30.6205V14.2173H107.636C109.321 14.2173 110.696 14.7593 111.761 15.8432C112.826 16.9272 113.358 18.299 113.358 19.9588C113.358 21.6186 112.826 22.982 111.761 24.0745C110.696 25.1584 109.321 25.7004 107.636 25.7004H104.887V30.6205H100.714ZM104.887 21.7118H107.414C107.899 21.7118 108.312 21.534 108.654 21.1867C108.995 20.8311 109.17 20.4246 109.17 19.9588C109.17 19.4931 108.995 19.0781 108.654 18.7309C108.312 18.3753 107.899 18.2059 107.414 18.2059H104.887V21.7118Z" fill="white"/>
<path d="M115.616 30.6205V14.2173H126.392V18.4345H119.796V30.6205H115.616Z" fill="white"/>
<path d="M128.22 30.6205V14.2173H132.4V23.2361L138.996 14.2173H142.62V30.6205H138.44V21.6017L131.844 30.6205H128.22Z" fill="white"/>
<path d="M144.551 30.6205L147.738 24.5317C147.237 24.2862 146.8 23.939 146.418 23.4986C145.536 22.5586 145.099 21.3392 145.099 19.8403C145.099 18.2482 145.624 16.9102 146.681 15.8347C147.738 14.7593 149.081 14.2173 150.702 14.2173H157.958V30.6205H153.777V25.4633H151.473L148.946 30.6205H144.551ZM150.932 21.4831H153.793V18.2059H150.932C150.448 18.2059 150.05 18.3583 149.748 18.6716C149.438 18.985 149.287 19.3745 149.287 19.8403C149.287 20.306 149.438 20.6956 149.748 21.0089C150.05 21.3222 150.448 21.4831 150.932 21.4831Z" fill="white"/>
</svg>
