<svg width="105" height="73" viewBox="0 0 105 73" fill="none" xmlns="http://www.w3.org/2000/svg">
<path d="M32.87 0.549471L0.0692384 70.9098C0.00312549 71.0716 -0.0161522 71.2488 0.0136076 71.421C0.0433673 71.5932 0.120965 71.7533 0.237532 71.8836C0.354099 72.0139 0.504936 72.1088 0.672799 72.1574C0.840662 72.2054 1.01879 72.206 1.18681 72.158L104.115 34.6821C104.287 34.6157 104.436 34.4997 104.542 34.3489C104.648 34.1979 104.707 34.019 104.711 33.8345V0.931309C104.711 0.684312 104.613 0.447427 104.439 0.272774C104.264 0.0981211 104.027 0 103.78 0H33.6896C33.5152 0.00563794 33.346 0.0601333 33.2011 0.157283C33.0562 0.254425 32.9414 0.390319 32.87 0.549471Z" fill="#FB3449"/>
<path d="M37.6572 5.72789H36.0367V1.84434H34.6118V10.906H36.0367V7.01314H37.6572V10.8967H39.1101V1.84434H37.6572V5.72789ZM97.7174 1.84434H96.2926V10.906H97.7174V1.84434ZM41.457 1.84434L40.0041 10.906H41.3079L41.5594 9.25761H43.3103L43.5524 10.906H44.9866L43.5431 1.84434H41.457ZM41.7456 8.02828L42.4349 3.4462L43.124 8.02828H41.7456ZM53.7782 5.5789L53.2567 7.57191V1.84434H51.9901V10.906H53.4522L54.6443 6.75236L55.231 4.52652V10.906H56.5162V1.84434H54.9423L53.7782 5.5789ZM76.3906 8.60565L76.549 3.12955H77.7872V10.8967H79.2308V1.84434H75.2076L74.9746 8.68951C74.9746 9.52767 74.7422 9.62079 74.0996 9.62079V10.9153H74.3138C75.7386 10.9153 76.3348 10.2634 76.3906 8.60565ZM95.4822 8.65225V7.48811C95.4822 6.03526 94.7839 5.24364 93.3591 5.24364H92.6883V1.84434H91.2635V10.906H93.3591C94.7745 10.906 95.4822 10.1144 95.4822 8.66152V8.65225ZM92.6883 6.52884H93.3591C93.815 6.52884 94.0574 6.73375 94.0574 7.38565V8.74537C94.0574 9.38794 93.815 9.60219 93.3591 9.60219H92.6883V6.52884ZM84.6231 8.65225V7.48811C84.6231 6.03526 83.9248 5.24364 82.5 5.24364H81.8292V1.84434H80.4044V10.906H82.5C83.8872 10.906 84.6137 10.1144 84.6137 8.66152L84.6231 8.65225ZM81.8292 6.52884H82.5C82.956 6.52884 83.1983 6.73375 83.1983 7.38565V8.74537C83.1983 9.38794 82.956 9.60219 82.5 9.60219H81.8292V6.52884ZM87.0631 7.00381H88.6839V10.8874H90.1368V1.84434H88.6839V5.72789H87.0537V1.84434H85.6289V10.906H87.0537L87.0631 7.00381ZM50.3603 1.84434H48.9354V9.61146H47.3242V1.84434H45.8993V10.906H49.6246V12.126H51.0122V9.63012H50.3603V1.84434ZM71.892 10.906H73.3262L71.8738 1.84434H69.7877L68.3347 10.906H69.6386L69.8804 9.25761H71.6315L71.892 10.906ZM70.0852 8.02828L70.7747 3.4462L71.4637 8.02828H70.0852ZM102.681 3.13887V1.84434H98.7977V10.906H102.681V9.61146H100.223V6.96655H102.178V5.65342H100.223V3.13887H102.681ZM59.6639 1.7419C59.3636 1.71667 59.0611 1.75942 58.779 1.867C58.4969 1.97457 58.243 2.1442 58.0354 2.36333C57.8278 2.58246 57.6722 2.84547 57.58 3.13287C57.4883 3.42027 57.4618 3.7247 57.5032 4.02362V8.73604C57.4756 9.03663 57.5104 9.33975 57.6065 9.62604C57.7025 9.91232 57.8571 10.1754 58.0602 10.3986C58.2634 10.6217 58.5112 10.7999 58.7873 10.9219C59.0638 11.0438 59.3619 11.1068 59.6639 11.1068C59.9659 11.1068 60.2645 11.0438 60.5405 10.9219C60.8171 10.7999 61.0644 10.6217 61.2681 10.3986C61.4713 10.1754 61.6258 9.91232 61.7219 9.62604C61.8174 9.33975 61.8527 9.03663 61.8246 8.73604V4.0143C61.8649 3.72119 61.84 3.42284 61.7511 3.14051C61.6628 2.85818 61.5132 2.59883 61.3134 2.38093C61.113 2.16304 60.8673 1.99196 60.5935 1.87989C60.3197 1.76782 60.0249 1.71753 59.729 1.73259L59.6639 1.7419ZM60.3998 8.81984C60.3998 9.4718 60.111 9.75118 59.6639 9.75118C59.2173 9.75118 58.9286 9.49973 58.9286 8.81984V3.92117C58.9286 3.26925 59.2079 2.98986 59.6639 2.98986C60.1204 2.98986 60.3998 3.232 60.3998 3.92117V8.81984ZM64.3115 7.02241H65.9317V10.906H67.3847V1.84434H65.9317V5.72789H64.3115V1.84434H62.8867V10.906H64.3115V7.02241ZM84.288 14.0166V12.7127H80.4044V21.7744H84.288V20.4799H81.8292V17.835H83.8872V16.5311H81.9319V14.0073L84.288 14.0166ZM88.5624 21.7838H90.0248L88.0413 16.7546L90.0248 12.7127H88.6L86.7374 16.6615V12.7127H85.3777V21.7744H86.8025V18.9805L87.2403 18.1516L88.5624 21.7838ZM93.666 21.7838V14.0073H95.1565V12.7127H90.7513V14.0073H92.2693V21.7744L93.666 21.7838ZM100.279 19.5393V18.3565C100.279 16.9036 99.58 16.1214 98.1552 16.1214H97.4844V12.7127H96.0596V21.7744H98.1552C99.6545 21.7838 100.353 20.9921 100.353 19.5393H100.279ZM97.4844 17.4159H98.1552C98.6117 17.4159 98.8535 17.6207 98.8535 18.2727V19.6324C98.8535 20.2843 98.6117 20.4892 98.1552 20.4892H97.4844V17.4159ZM74.146 16.1307V14.9572C74.146 13.5044 73.4477 12.7221 72.0223 12.7221H69.9273V21.7838H71.3522V18.3751H72.0223C73.5128 18.3751 74.2111 17.5835 74.2111 16.1307H74.146ZM71.3522 14.0073H72.0223C72.4789 14.0073 72.7212 14.2122 72.7212 14.8641V16.2238C72.7212 16.8757 72.4789 17.0806 72.0223 17.0806H71.3522V14.0073ZM64.3297 21.7838H65.7551V14.0073H67.3753V21.7744H68.8282V12.7127H64.3297V21.7838ZM101.136 21.7838H102.56V12.7127H101.136V21.7838ZM77.2098 12.6196C76.9095 12.5944 76.607 12.6371 76.3249 12.7447C76.0428 12.8523 75.7889 13.0219 75.5813 13.241C75.3737 13.4602 75.2181 13.7232 75.1259 14.0106C75.0342 14.298 75.0077 14.6024 75.0491 14.9014V19.6138C75.0491 20.1868 75.2771 20.7364 75.6823 21.1416C76.0875 21.5468 76.6368 21.7744 77.2098 21.7744C77.7828 21.7744 78.3327 21.5468 78.7378 21.1416C79.143 20.7364 79.3705 20.1868 79.3705 19.6138V14.892C79.4113 14.5965 79.3859 14.2955 79.296 14.011C79.206 13.7266 79.0536 13.4657 78.8505 13.2473C78.6473 13.0288 78.3978 12.8584 78.1207 12.7482C77.8435 12.6381 77.5449 12.5909 77.2473 12.6103L77.2098 12.6196ZM77.9457 19.6976C77.9457 20.3495 77.657 20.6289 77.2098 20.6289C76.7632 20.6289 76.4745 20.3868 76.4745 19.6976V14.7989C76.4745 14.147 76.7538 13.8676 77.2098 13.8676C77.6663 13.8676 77.9457 14.1097 77.9457 14.7989V19.6976ZM99.8223 27.3344L99.3382 29.3181V23.5905H98.0712V32.6521H99.5336L100.725 28.4985L101.312 26.2726V32.6615H102.597V23.5905H101.024L99.8223 27.3344ZM78.7748 23.488C78.474 23.4628 78.1715 23.5056 77.8894 23.6131C77.6073 23.7207 77.3533 23.8903 77.1458 24.1095C76.9382 24.3286 76.7825 24.5916 76.6909 24.879C76.5987 25.1664 76.5722 25.4709 76.6142 25.7697V30.4822C76.6142 31.0552 76.8416 31.6047 77.2468 32.01C77.652 32.4152 78.2018 32.6428 78.7748 32.6428C79.3478 32.6428 79.8971 32.4152 80.3023 32.01C80.7075 31.6047 80.9355 31.0552 80.9355 30.4822V25.7697C80.9763 25.4733 80.9504 25.1715 80.8599 24.8864C80.7693 24.6011 80.6164 24.3397 80.4122 24.1211C80.2079 23.9026 79.9573 23.7323 79.6791 23.6227C79.4003 23.5132 79.1011 23.4672 78.8024 23.488H78.7748ZM79.5101 30.5753C79.5101 31.2179 79.2308 31.5066 78.7748 31.5066C78.3183 31.5066 78.039 31.2551 78.039 30.5753V25.6766C78.039 25.034 78.3277 24.7453 78.7748 24.7453C79.2214 24.7453 79.5101 24.9968 79.5101 25.6766V30.5753ZM73.6431 23.5905H71.5476V32.6521H72.9724V29.2529H73.6431C75.0679 29.2529 75.7662 28.4612 75.7662 27.0084V25.8256C75.7756 24.3821 75.0773 23.5905 73.6431 23.5905ZM74.3414 27.1015C74.3414 27.7441 74.0996 27.9583 73.6431 27.9583H72.9724V24.885H73.6431C74.0996 24.885 74.3414 25.0899 74.3414 25.7418V27.1015ZM84.0738 23.488C82.6766 23.488 81.9501 24.3169 81.9501 25.7697V30.4822C81.9501 31.935 82.6766 32.7639 84.0738 32.7639C85.4705 32.7639 86.197 31.935 86.197 30.4822V29.3181H84.8191V30.6126C84.8191 31.2551 84.5304 31.4973 84.0832 31.4973C83.6361 31.4973 83.3473 31.2645 83.3473 30.6126V25.6766C83.3473 25.034 83.6361 24.7453 84.0832 24.7453C84.5304 24.7453 84.8191 24.9968 84.8191 25.6766V26.6079H86.1693V25.7232C86.2063 24.3169 85.4799 23.488 84.0832 23.488H84.0738ZM89.2795 23.488C87.8829 23.488 87.1564 24.3169 87.1564 25.7697V30.4822C87.1564 31.935 87.8829 32.7639 89.2795 32.7639C90.6767 32.7639 91.4032 31.935 91.4032 30.4822V29.3181H90.0529V30.6126C90.0529 31.2551 89.7642 31.4973 89.3171 31.4973C88.8699 31.4973 88.5442 31.1807 88.5442 30.566V25.6766C88.5442 25.034 88.8329 24.7453 89.2795 24.7453C89.7267 24.7453 90.0154 24.9968 90.0154 25.6766V26.6079H91.3657V25.7232C91.4126 24.3169 90.6861 23.488 89.2889 23.488H89.2795ZM94.2064 27.3344L93.6942 29.3181V23.5905H92.4278V32.6521H93.8896L95.0632 28.4985L95.65 26.2726V32.6615H96.9258V23.5905H95.3613L94.2064 27.3344Z" fill="white"/>
</svg>
